<mxfile host="Electron" agent="Mozilla/5.0 (X11; Linux x86_64) AppleWebKit/537.36 (KHTML, like Gecko) draw.io/28.2.5 Chrome/138.0.7204.251 Electron/37.6.1 Safari/537.36" version="28.2.5">
  <diagram name="Page-1" id="cnrgVsKyDYrnzMMuiZhF">
    <mxGraphModel dx="1426" dy="1007" grid="1" gridSize="10" guides="1" tooltips="1" connect="1" arrows="1" fold="1" page="1" pageScale="1" pageWidth="850" pageHeight="1100" math="0" shadow="0">
      <root>
        <mxCell id="0" />
        <mxCell id="1" parent="0" />
        <mxCell id="iIlSKvNLph8wEFSYdOuS-1" value="" style="rounded=0;whiteSpace=wrap;html=1;strokeWidth=1;fillColor=#FDF6E3;strokeColor=#5C6A72;fontColor=light-dark(#2e3440, #c1c1c1);fillOpacity=100;fontFamily=LXGW WenKai Mono Medium;fillStyle=solid;fontStyle=0;fontSize=14;" parent="1" vertex="1">
          <mxGeometry x="20" y="20" width="200" height="200" as="geometry" />
        </mxCell>
        <mxCell id="5USr-F9n6fsTFPZxbp0P-1" value="&lt;font style=&quot;color: rgb(92, 106, 114);&quot;&gt;#E67E80&lt;/font&gt;" style="rounded=0;whiteSpace=wrap;html=1;strokeWidth=1;fillColor=#E67E80;strokeColor=#5C6A72;fontColor=light-dark(#2e3440, #c1c1c1);fillOpacity=50;fontFamily=LXGW WenKai Mono Medium;fillStyle=solid;fontStyle=0;fontSize=14;" parent="1" vertex="1">
          <mxGeometry x="40" y="60" width="80" height="20" as="geometry" />
        </mxCell>
        <mxCell id="5USr-F9n6fsTFPZxbp0P-2" value="&lt;font style=&quot;color: rgb(92, 106, 114);&quot;&gt;#E69875&lt;/font&gt;" style="rounded=0;whiteSpace=wrap;html=1;strokeWidth=1;fillColor=#E69875;strokeColor=#5C6A72;fontColor=light-dark(#2e3440, #c1c1c1);fillOpacity=50;fontFamily=LXGW WenKai Mono Medium;fillStyle=solid;fontStyle=0;fontSize=14;" parent="1" vertex="1">
          <mxGeometry x="40" y="80" width="80" height="20" as="geometry" />
        </mxCell>
        <mxCell id="5USr-F9n6fsTFPZxbp0P-3" value="&lt;font style=&quot;color: rgb(92, 106, 114);&quot;&gt;#DBBC7F&lt;/font&gt;" style="rounded=0;whiteSpace=wrap;html=1;strokeWidth=1;fillColor=#DBBC7F;strokeColor=#5C6A72;fontColor=light-dark(#2e3440, #c1c1c1);fillOpacity=50;fontFamily=LXGW WenKai Mono Medium;fillStyle=solid;fontStyle=0;fontSize=14;" parent="1" vertex="1">
          <mxGeometry x="40" y="100" width="80" height="20" as="geometry" />
        </mxCell>
        <mxCell id="5USr-F9n6fsTFPZxbp0P-4" value="&lt;font style=&quot;color: rgb(92, 106, 114);&quot;&gt;#A7C080&lt;/font&gt;" style="rounded=0;whiteSpace=wrap;html=1;strokeWidth=1;fillColor=#A7C080;strokeColor=#5C6A72;fontColor=light-dark(#2e3440, #c1c1c1);fillOpacity=50;fontFamily=LXGW WenKai Mono Medium;fillStyle=solid;fontStyle=0;fontSize=14;" parent="1" vertex="1">
          <mxGeometry x="40" y="120" width="80" height="20" as="geometry" />
        </mxCell>
        <mxCell id="5USr-F9n6fsTFPZxbp0P-5" value="&lt;font style=&quot;color: rgb(92, 106, 114);&quot;&gt;#7FBBB3&lt;/font&gt;" style="rounded=0;whiteSpace=wrap;html=1;strokeWidth=1;fillColor=#7FBBB3;strokeColor=#5C6A72;fontColor=light-dark(#2e3440, #c1c1c1);fillOpacity=50;fontFamily=LXGW WenKai Mono Medium;fillStyle=solid;fontStyle=0;fontSize=14;" parent="1" vertex="1">
          <mxGeometry x="40" y="140" width="80" height="20" as="geometry" />
        </mxCell>
        <mxCell id="5USr-F9n6fsTFPZxbp0P-6" value="&lt;font style=&quot;color: rgb(92, 106, 114);&quot;&gt;#83C092&lt;/font&gt;" style="rounded=0;whiteSpace=wrap;html=1;strokeWidth=1;fillColor=#83C092;strokeColor=#5C6A72;fontColor=light-dark(#2e3440, #c1c1c1);fillOpacity=50;fontFamily=LXGW WenKai Mono Medium;fillStyle=solid;fontStyle=0;fontSize=14;" parent="1" vertex="1">
          <mxGeometry x="40" y="160" width="80" height="20" as="geometry" />
        </mxCell>
        <mxCell id="5USr-F9n6fsTFPZxbp0P-7" value="&lt;font style=&quot;color: rgb(92, 106, 114);&quot;&gt;#D699B6&lt;/font&gt;" style="rounded=0;whiteSpace=wrap;html=1;strokeWidth=1;fillColor=#D699B6;strokeColor=#5C6A72;fontColor=light-dark(#2e3440, #c1c1c1);fillOpacity=50;fontFamily=LXGW WenKai Mono Medium;fillStyle=solid;fontStyle=0;fontSize=14;" parent="1" vertex="1">
          <mxGeometry x="40" y="180" width="80" height="20" as="geometry" />
        </mxCell>
        <mxCell id="5USr-F9n6fsTFPZxbp0P-8" value="&lt;font style=&quot;color: rgb(92, 106, 114);&quot;&gt;#F85552&lt;/font&gt;" style="rounded=0;whiteSpace=wrap;html=1;strokeWidth=1;fillColor=#F85552;strokeColor=#5C6A72;fontColor=light-dark(#2e3440, #c1c1c1);fillOpacity=50;fontFamily=LXGW WenKai Mono Medium;fillStyle=solid;fontStyle=0;fontSize=14;" parent="1" vertex="1">
          <mxGeometry x="120" y="60" width="80" height="20" as="geometry" />
        </mxCell>
        <mxCell id="5USr-F9n6fsTFPZxbp0P-9" value="&lt;font style=&quot;color: rgb(92, 106, 114);&quot;&gt;#F57D26&lt;/font&gt;" style="rounded=0;whiteSpace=wrap;html=1;strokeWidth=1;fillColor=#F57D26;strokeColor=#5C6A72;fontColor=light-dark(#2e3440, #c1c1c1);fillOpacity=50;fontFamily=LXGW WenKai Mono Medium;fillStyle=solid;fontStyle=0;fontSize=14;" parent="1" vertex="1">
          <mxGeometry x="120" y="80" width="80" height="20" as="geometry" />
        </mxCell>
        <mxCell id="5USr-F9n6fsTFPZxbp0P-10" value="&lt;font style=&quot;color: rgb(92, 106, 114);&quot;&gt;#DFA000&lt;/font&gt;" style="rounded=0;whiteSpace=wrap;html=1;strokeWidth=1;fillColor=#DFA000;strokeColor=#5C6A72;fontColor=light-dark(#2e3440, #c1c1c1);fillOpacity=50;fontFamily=LXGW WenKai Mono Medium;fillStyle=solid;fontStyle=0;fontSize=14;" parent="1" vertex="1">
          <mxGeometry x="120" y="100" width="80" height="20" as="geometry" />
        </mxCell>
        <mxCell id="5USr-F9n6fsTFPZxbp0P-11" value="&lt;font style=&quot;color: rgb(92, 106, 114);&quot;&gt;#8DA101&lt;/font&gt;" style="rounded=0;whiteSpace=wrap;html=1;strokeWidth=1;fillColor=#8DA101;strokeColor=#5C6A72;fontColor=light-dark(#2e3440, #c1c1c1);fillOpacity=50;fontFamily=LXGW WenKai Mono Medium;fillStyle=solid;fontStyle=0;fontSize=14;" parent="1" vertex="1">
          <mxGeometry x="120" y="120" width="80" height="20" as="geometry" />
        </mxCell>
        <mxCell id="5USr-F9n6fsTFPZxbp0P-12" value="&lt;font style=&quot;color: rgb(92, 106, 114);&quot;&gt;#3A94C5&lt;/font&gt;" style="rounded=0;whiteSpace=wrap;html=1;strokeWidth=1;fillColor=#3A94C5;strokeColor=#5C6A72;fontColor=light-dark(#2e3440, #c1c1c1);fillOpacity=50;fontFamily=LXGW WenKai Mono Medium;fillStyle=solid;fontStyle=0;fontSize=14;" parent="1" vertex="1">
          <mxGeometry x="120" y="140" width="80" height="20" as="geometry" />
        </mxCell>
        <mxCell id="5USr-F9n6fsTFPZxbp0P-13" value="&lt;font style=&quot;color: rgb(92, 106, 114);&quot;&gt;#35A77C&lt;/font&gt;" style="rounded=0;whiteSpace=wrap;html=1;strokeWidth=1;fillColor=#35A77C;strokeColor=#5C6A72;fontColor=light-dark(#2e3440, #c1c1c1);fillOpacity=50;fontFamily=LXGW WenKai Mono Medium;fillStyle=solid;fontStyle=0;fontSize=14;" parent="1" vertex="1">
          <mxGeometry x="120" y="160" width="80" height="20" as="geometry" />
        </mxCell>
        <mxCell id="5USr-F9n6fsTFPZxbp0P-14" value="&lt;font style=&quot;color: rgb(92, 106, 114);&quot;&gt;#DF69BA&lt;/font&gt;" style="rounded=0;whiteSpace=wrap;html=1;strokeWidth=1;fillColor=#DF69BA;strokeColor=#5C6A72;fontColor=light-dark(#2e3440, #c1c1c1);fillOpacity=50;fontFamily=LXGW WenKai Mono Medium;fillStyle=solid;fontStyle=0;fontSize=14;" parent="1" vertex="1">
          <mxGeometry x="120" y="180" width="80" height="20" as="geometry" />
        </mxCell>
        <mxCell id="5USr-F9n6fsTFPZxbp0P-15" value="&lt;font style=&quot;color: rgb(92, 106, 114);&quot;&gt;#5C6A72&lt;/font&gt;" style="rounded=0;whiteSpace=wrap;html=1;strokeWidth=1;fillColor=#2D353B;strokeColor=#5C6A72;fontColor=light-dark(#2e3440, #c1c1c1);fillOpacity=50;fontFamily=LXGW WenKai Mono Medium;fillStyle=solid;fontStyle=0;fontSize=14;" parent="1" vertex="1">
          <mxGeometry x="40" y="40" width="80" height="20" as="geometry" />
        </mxCell>
        <mxCell id="5USr-F9n6fsTFPZxbp0P-16" value="&lt;font style=&quot;color: rgb(92, 106, 114);&quot;&gt;#FDF6E3&lt;/font&gt;" style="rounded=0;whiteSpace=wrap;html=1;strokeWidth=1;fillColor=#FDF6E3;strokeColor=#5C6A72;fontColor=light-dark(#2e3440, #c1c1c1);fillOpacity=100;fontFamily=LXGW WenKai Mono Medium;fillStyle=solid;fontStyle=0;fontSize=14;" parent="1" vertex="1">
          <mxGeometry x="120" y="40" width="80" height="20" as="geometry" />
        </mxCell>
      </root>
    </mxGraphModel>
  </diagram>
</mxfile>
